#!OML:ASF I:\Actors\actors\Patient Classification 2\Patient 1\Session 1\actor1.ASF
:FULLY-SPECIFIED
:DEGREES
135
root -1.35814 18.6397 6.19462 0.15876 -3.59856 -4.17272
lowerback 3.14372 0.396665 5.91393
upperback 1.55188 0.70301 3.33409
thorax -0.13519 0.367822 0.0935907
lowerneck -0.955809 -4.89792 -0.348603
upperneck 44.3195 -11.4819 8.81096
head 17.1259 -3.87447 2.51956
rclavicle -1.04362e-015 -3.02153e-014
rhumerus -24.0662 24.4664 -71.4265
rradius 140.665
rwrist -8.54379
rhand -10.6605 -15.9845
rfingers 7.12502
rthumb 15.3475 -45.3949
lclavicle -1.04362e-015 -3.02153e-014
lhumerus -46.1437 0.71956 90.8447
lradius 43.3482
lwrist -11.55
lhand 1.45018 -24.0024
lfingers 7.12502
lthumb 26.9786 4.0913
rfemur 0 0 0
rtibia 0
rfoot 0 0
rtoes 0
lfemur -1.66639 -8.13215 -8.82848
ltibia 21.6183
lfoot -23.2323 14.6576
ltoes -57.5514
136
root -1.37125 18.6391 6.19758 0.152526 -3.54339 -4.1692
lowerback 3.25377 0.382454 5.98337
upperback 1.57424 0.694592 3.40588
thorax -0.174003 0.363134 0.128391
lowerneck -0.828548 -4.89346 -0.353033
upperneck 44.2714 -11.4475 8.78984
head 17.0592 -3.86744 2.51798
rclavicle 8.19987e-015 -9.54166e-015
rhumerus -23.7125 24.723 -71.1521
rradius 141.196
rwrist -8.56215
rhand -10.6901 -15.8166
rfingers 7.12502
rthumb 15.319 -45.2292
lclavicle 8.19987e-015 -9.54166e-015
lhumerus -46.2268 0.57208 91.0107
lradius 43.5496
lwrist -11.3361
lhand 1.46955 -23.9222
lfingers 7.12502
lthumb 26.9972 4.16864
rfemur 0 0 0
rtibia 0
rfoot 0 0
rtoes 0
lfemur -1.64595 -8.21814 -8.79917
ltibia 21.5959
lfoot -23.2534 14.6861
ltoes -57.506
137
root -1.38461 18.6382 6.19996 0.133295 -3.47551 -4.22244
lowerback 3.41508 0.366576 6.14724
upperback 1.57356 0.693061 3.458
thorax -0.263421 0.360923 0.0898145
lowerneck -0.67544 -4.9069 -0.273373
upperneck 44.2266 -11.4243 8.69977
head 16.9762 -3.86024 2.46864
rclavicle 2.73329e-015 -8.74653e-015
rhumerus -23.3793 24.8981 -70.8602
rradius 141.705
rwrist -8.66137
rhand -10.7837 -15.8186
rfingers 7.12502
rthumb 15.2289 -45.2381
lclavicle 2.73329e-015 -8.74653e-015
lhumerus -46.302 0.41712 91.1202
lradius 43.7134
lwrist -11.1263
lhand 1.41639 -23.9414
lfingers 7.12502
lthumb 26.9463 4.15727
rfemur 0 0 0
rtibia 0
rfoot 0 0
rtoes 0
lfemur -1.61991 -8.26651 -8.69435
ltibia 21.5605
lfoot -23.2312 14.6916
ltoes -57.489
138
root -1.39844 18.6386 6.20211 0.173881 -3.42265 -4.2425
lowerback 3.49604 0.354738 6.26438
upperback 1.60256 0.68662 3.50034
thorax -0.27794 0.358125 0.0682034
lowerneck -0.715959 -4.87573 -0.316054
upperneck 44.3219 -11.4309 8.80964
head 17.0609 -3.85078 2.53004
rclavicle 5.66536e-015 3.4191e-014
rhumerus -22.9023 25.0059 -70.5246
rradius 142.136
rwrist -8.77693
rhand -10.8637 -15.6657
rfingers 7.12502
rthumb 15.1518 -45.091
lclavicle 5.66536e-015 3.4191e-014
lhumerus -46.2555 0.343314 91.1909
lradius 43.8207
lwrist -10.9952
lhand 1.31304 -24.0203
lfingers 7.12502
lthumb 26.8474 4.09362
rfemur 0 0 0
rtibia 0
rfoot 0 0
rtoes 0
lfemur -1.65698 -8.2696 -8.61633
ltibia 21.5143
lfoot -23.1603 14.7411
ltoes -57.6175
139
root -1.41311 18.6397 6.20416 0.242463 -3.35726 -4.19731
lowerback 3.48527 0.342551 6.25274
upperback 1.66346 0.665325 3.56881
thorax -0.210913 0.349582 0.146428
lowerneck -0.759799 -4.85198 -0.267266
upperneck 44.3425 -11.3713 8.73188
head 17.0657 -3.82179 2.4937
rclavicle -1.19271e-015 -2.94201e-014
rhumerus -22.3362 25.0665 -70.0664
rradius 142.546
rwrist -9.01192
rhand -10.8299 -15.6695
rfingers 7.12502
rthumb 15.1843 -45.0924
lclavicle -1.19271e-015 -2.94201e-014
lhumerus -46.1269 0.343229 91.2915
lradius 43.8605
lwrist -10.9089
lhand 1.21577 -24.0303
lfingers 7.12502
lthumb 26.7543 4.09785
rfemur 0 0 0
rtibia 0
rfoot 0 0
rtoes 0
lfemur -1.71764 -8.31743 -8.60743
ltibia 21.4577
lfoot -23.1239 14.7784
ltoes -57.6796
140
root -1.42746 18.6405 6.20647 0.275878 -3.27346 -4.15759
lowerback 3.5242 0.323312 6.23646
upperback 1.71466 0.639771 3.64171
thorax -0.181968 0.337839 0.231466
lowerneck -0.716676 -4.83437 -0.195851
upperneck 44.3184 -11.3029 8.63154
head 17.017 -3.79288 2.4448
rclavicle -1.51076e-014 1.59028e-014
rhumerus -21.7738 25.0423 -69.5285
rradius 142.951
rwrist -9.47317
rhand -10.6324 -15.9905
rfingers 7.12502
rthumb 15.3746 -45.3989
lclavicle -1.51076e-014 1.59028e-014
lhumerus -46.006 0.35478 91.3784
lradius 43.8916
lwrist -10.8687
lhand 1.23464 -24.0789
lfingers 7.12502
lthumb 26.7724 4.04653
rfemur 0 0 0
rtibia 0
rfoot 0 0
rtoes 0
lfemur -1.73513 -8.41658 -8.59295
ltibia 21.3876
lfoot -23.1106 14.7605
ltoes -57.5443
141
root -1.44035 18.6407 6.209 0.292262 -3.22503 -4.13568
lowerback 3.62561 0.306946 6.29422
upperback 1.75404 0.626843 3.69452
thorax -0.198398 0.331641 0.2538
lowerneck -0.664447 -4.80899 -0.255426
upperneck 44.333 -11.286 8.71484
head 17.025 -3.78568 2.4995
rclavicle -2.28602e-015 -4.69132e-014
rhumerus -21.3625 24.7515 -69.2861
rradius 143.291
rwrist -11.1205
rhand -9.4769 -15.208
rfingers 7.12502
rthumb 16.4873 -44.5275
lclavicle -2.28602e-015 -4.69132e-014
lhumerus -45.9717 0.289129 91.4752
lradius 44.0454
lwrist -10.811
lhand 1.27179 -24.1424
lfingers 7.12502
lthumb 26.808 3.97762
rfemur 0 0 0
rtibia 0
rfoot 0 0
rtoes 0
lfemur -1.71967 -8.51907 -8.57414
ltibia 21.3223
lfoot -23.1405 14.7516
ltoes -57.3873
142
root -1.45272 18.641 6.211 0.307348 -3.20793 -4.12828
lowerback 3.72611 0.298685 6.41758
upperback 1.78951 0.626983 3.72095
thorax -0.216615 0.332307 0.212156
lowerneck -0.598216 -4.78076 -0.295398
upperneck 44.3637 -11.2757 8.81221
head 17.0406 -3.77675 2.55746
rclavicle -1.11319e-014 -2.78299e-014
rhumerus -21.2087 25.3021 -69.2375
rradius 143.501
rwrist -9.41042
rhand -10.7177 -15.5459
rfingers 7.12502
rthumb 15.2924 -44.9605
lclavicle -1.11319e-014 -2.78299e-014
lhumerus -46.0152 0.17147 91.5637
lradius 44.2468
lwrist -10.7398
lhand 1.24365 -24.1889
lfingers 7.12502
lthumb 26.781 3.93524
rfemur 0 0 0
rtibia 0
rfoot 0 0
rtoes 0
lfemur -1.70398 -8.59269 -8.55005
ltibia 21.2775
lfoot -23.1376 14.8141
ltoes -57.4382
143
root -1.46646 18.6411 6.21194 0.3137 -3.19574 -4.17965
lowerback 3.84787 0.282381 6.57872
upperback 1.8342 0.619394 3.75445
thorax -0.237072 0.329367 0.157108
lowerneck -0.569396 -4.73768 -0.227582
upperneck 44.4352 -11.2446 8.85129
head 17.0749 -3.74543 2.57247
rclavicle -1.3418e-014 -2.54444e-014
rhumerus -21.0167 25.4043 -69.173
rradius 143.735
rwrist -9.38076
rhand -10.6632 -15.3202
rfingers 7.12502
rthumb 15.3449 -44.7309
lclavicle -1.3418e-014 -2.54444e-014
lhumerus -46.0022 0.100568 91.5955
lradius 44.3646
lwrist -10.6489
lhand 1.25441 -24.1801
lfingers 7.12502
lthumb 26.7913 3.94239
rfemur 0 0 0
rtibia 0
rfoot 0 0
rtoes 0
lfemur -1.6892 -8.61213 -8.44863
ltibia 21.2417
lfoot -23.0696 14.8902
ltoes -57.5908
144
root -1.48163 18.6407 6.21353 0.324939 -3.19112 -4.27179
lowerback 3.95434 0.271504 6.73922
upperback 1.90403 0.616177 3.81478
thorax -0.223005 0.329715 0.130267
lowerneck -0.588812 -4.71683 -0.140178
upperneck 44.4952 -11.2415 8.86451
head 17.1128 -3.72404 2.56601
rclavicle 5.96354e-016 -5.56597e-015
rhumerus -20.7332 25.3978 -68.9321
rradius 143.947
rwrist -9.35798
rhand -10.6412 -15.3634
rfingers 7.12502
rthumb 15.3661 -44.7724
lclavicle 5.96354e-016 -5.56597e-015
lhumerus -45.9147 -0.00936559 91.6541
lradius 44.4658
lwrist -10.4746
lhand 1.29702 -24.0756
lfingers 7.12502
lthumb 26.8321 4.04063
rfemur 0 0 0
rtibia 0
rfoot 0 0
rtoes 0
lfemur -1.67374 -8.628 -8.29273
ltibia 21.2108
lfoot -23.046 14.9164
ltoes -57.6466
145
root -1.49593 18.6404 6.21499 0.365772 -3.17985 -4.31179
lowerback 4.02082 0.267578 6.84947
upperback 1.97252 0.61674 3.87508
thorax -0.1884 0.332223 0.131416
lowerneck -0.580145 -4.71547 -0.0351498
upperneck 44.5199 -11.2161 8.76713
head 17.1053 -3.70466 2.50714
rclavicle -6.95746e-015 -2.46493e-014
rhumerus -20.3295 25.2335 -68.475
rradius 144.111
rwrist -9.55334
rhand -10.7235 -15.2894
rfingers 7.12502
rthumb 15.2868 -44.7045
lclavicle -6.95746e-015 -2.46493e-014
lhumerus -45.8397 -0.130516 91.7643
lradius 44.6156
lwrist -10.3404
lhand 1.31651 -24.0814
lfingers 7.12502
lthumb 26.8507 4.03206
rfemur 0 0 0
rtibia 0
rfoot 0 0
rtoes 0
lfemur -1.69855 -8.59721 -8.18588
ltibia 21.1876
lfoot -23.0105 14.8752
ltoes -57.6705
146
root -1.50928 18.6396 6.21483 0.377829 -3.17454 -4.3049
lowerback 4.16477 0.236224 6.92608
upperback 2.03155 0.588294 3.92226
thorax -0.208646 0.318651 0.138239
lowerneck -0.568 -4.65925 0.046137
upperneck 44.6003 -11.1183 8.68467
head 17.1274 -3.65599 2.4721
rclavicle 1.23246e-014 2.38542e-014
rhumerus -19.9577 25.1323 -68.0966
rradius 144.22
rwrist -9.72441
rhand -10.8198 -15.263
rfingers 7.12502
rthumb 15.1941 -44.6851
lclavicle 1.23246e-014 2.38542e-014
lhumerus -45.8195 -0.18425 91.8562
lradius 44.8091
lwrist -10.2309
lhand 1.37083 -24.1234
lfingers 7.12502
lthumb 26.9027 3.982
rfemur 0 0 0
rtibia 0
rfoot 0 0
rtoes 0
lfemur -1.70312 -8.47003 -8.12414
ltibia 21.1646
lfoot -22.9327 14.7788
ltoes -57.746
